<svg viewBox="0 0 203 38" xmlns="http://www.w3.org/2000/svg" fill-rule="evenodd" clip-rule="evenodd" stroke-linejoin="round" stroke-miterlimit="1.41421"><circle cx="19.577" cy="18.077" r="18.077" fill="#f56620"/><ellipse cx="19.577" cy="20.384" rx="15.41" ry="15.051" fill="#ffa811"/><ellipse cx="19.577" cy="22.235" rx="13.377" ry="12.837" fill="#ff8711"/><ellipse cx="19.411" cy="20.154" rx="4.498" ry="4.61" fill="#fff"/><ellipse cx="19.577" cy="29.652" rx="9.415" ry="4.485" fill="#fff"/><g fill-rule="nonzero"><path d="M48.373 12.412l0 2.334.104 0c.209-.325.482-.656.819-.993.337-.336.749-.638 1.237-.906.488-.267 1.04-.487 1.655-.662.616-.174 1.307-.261 2.073-.261 1.185 0 2.277.227 3.276.68.999.453 1.858 1.074 2.578 1.864.72.79 1.278 1.719 1.673 2.787.395 1.069.592 2.219.592 3.45 0 1.231-.192 2.387-.575 3.467-.383 1.08-.929 2.021-1.637 2.822-.709.802-1.569 1.441-2.579 1.917-1.01.476-2.155.714-3.432.714-1.185 0-2.271-.244-3.258-.732-.987-.487-1.748-1.149-2.282-1.986l-.07 0 0 10.593-4.182 0 0-25.088 4.008 0zm9.756 8.293c0-.651-.099-1.295-.296-1.934-.198-.639-.494-1.214-.889-1.725-.395-.511-.894-.923-1.498-1.237-.604-.313-1.312-.47-2.125-.47-.767 0-1.452.162-2.056.488-.604.325-1.121.743-1.551 1.254-.43.511-.755 1.092-.976 1.742-.22.651-.331 1.301-.331 1.952 0 .65.111 1.295.331 1.933.221.639.546 1.214.976 1.725.43.511.947.924 1.551 1.237.604.314 1.289.471 2.056.471.813 0 1.521-.163 2.125-.488.604-.325 1.103-.744 1.498-1.255.395-.511.691-1.091.889-1.742.197-.65.296-1.301.296-1.951zM77.816 19.102c0-.534-.075-1.045-.226-1.533-.151-.488-.389-.918-.715-1.289-.325-.372-.737-.668-1.236-.889-.5-.221-1.086-.331-1.76-.331-1.255 0-2.317.378-3.188 1.133-.872.755-1.354 1.724-1.446 2.909l8.571 0zm4.182 1.882c0 .186 0 .371 0 .557 0 .186-.012.372-.035.558l-12.718 0c.046.604.203 1.155.47 1.655.267.499.621.929 1.063 1.289.441.36.94.645 1.498.854.558.209 1.138.313 1.742.313 1.046 0 1.928-.191 2.648-.575.721-.383 1.313-.911 1.777-1.585l2.788 2.23c-1.649 2.23-4.042 3.345-7.178 3.345-1.301 0-2.497-.203-3.589-.61-1.092-.406-2.038-.981-2.84-1.724-.801-.744-1.428-1.656-1.881-2.736-.453-1.08-.68-2.305-.68-3.676 0-1.347.227-2.573.68-3.676.453-1.103 1.074-2.044 1.864-2.822.79-.779 1.725-1.383 2.805-1.812 1.08-.43 2.247-.645 3.502-.645 1.161 0 2.236.192 3.223.575.987.383 1.841.952 2.561 1.707.72.755 1.283 1.696 1.69 2.823.406 1.126.61 2.445.61 3.955zM85.656 12.412l3.973 0 0 2.683.069 0c.372-.836 1.017-1.574 1.934-2.213.918-.639 2.004-.958 3.258-.958 1.092 0 2.027.192 2.805.575.778.383 1.417.889 1.917 1.516.499.627.865 1.347 1.097 2.16.232.813.349 1.649.349 2.509l0 10.453-4.182 0 0-9.268c0-.488-.035-.999-.104-1.534-.07-.534-.221-1.016-.453-1.446-.233-.429-.552-.784-.958-1.062-.407-.279-.947-.418-1.621-.418-.673 0-1.254.133-1.742.4-.488.267-.889.61-1.202 1.028-.314.418-.552.9-.714 1.446-.163.546-.244 1.098-.244 1.655l0 9.199-4.182 0 0-16.725z" fill="#f56620"/><path d="M118.619 10.879c-.511-.651-1.179-1.168-2.003-1.551-.825-.383-1.621-.575-2.387-.575-.395 0-.796.035-1.202.105-.407.069-.773.203-1.098.4-.325.198-.598.453-.819.767-.22.314-.331.714-.331 1.202 0 .418.087.767.262 1.046.174.278.429.522.766.731.337.209.738.401 1.202.575.465.174.988.354 1.568.54.837.279 1.708.587 2.614.924.906.336 1.73.784 2.474 1.341.743.558 1.359 1.249 1.846 2.073.488.825.732 1.853.732 3.084 0 1.417-.261 2.643-.784 3.676-.523 1.034-1.225 1.888-2.108 2.561-.883.674-1.893 1.173-3.031 1.499-1.139.325-2.312.488-3.52.488-1.765 0-3.473-.308-5.122-.924-1.649-.615-3.02-1.492-4.112-2.631l3.903-3.972c.604.743 1.4 1.365 2.387 1.864.987.5 1.969.749 2.944.749.442 0 .871-.046 1.289-.139.419-.093.785-.244 1.098-.453.314-.209.563-.488.749-.836.186-.349.279-.767.279-1.255 0-.464-.116-.859-.348-1.184-.233-.326-.564-.622-.993-.889-.43-.267-.965-.511-1.603-.732-.639-.22-1.365-.458-2.178-.714-.79-.255-1.562-.557-2.317-.906-.755-.348-1.429-.795-2.021-1.341-.593-.546-1.069-1.208-1.429-1.987-.36-.778-.54-1.724-.54-2.839 0-1.371.279-2.544.836-3.52.558-.975 1.29-1.777 2.195-2.404.906-.627 1.929-1.086 3.067-1.376 1.138-.291 2.288-.436 3.449-.436 1.394 0 2.817.256 4.269.767 1.452.511 2.724 1.266 3.815 2.265l-3.798 4.007zM159.074 17.395c-.325-.418-.767-.755-1.324-1.011-.558-.255-1.127-.383-1.708-.383-.604 0-1.149.122-1.637.366-.488.244-.906.569-1.255.975-.348.407-.621.877-.819 1.412-.197.534-.296 1.103-.296 1.707 0 .604.093 1.173.279 1.707.186.535.459 1.005.819 1.412.36.406.79.726 1.289.958.5.232 1.063.348 1.69.348.581 0 1.156-.11 1.725-.331.569-.22 1.028-.54 1.376-.958l3.171 3.868c-.72.697-1.649 1.243-2.787 1.637-1.139.395-2.347.593-3.624.593-1.371 0-2.648-.209-3.833-.627-1.185-.419-2.213-1.028-3.084-1.83-.871-.801-1.556-1.771-2.056-2.909-.499-1.139-.749-2.428-.749-3.868 0-1.417.25-2.695.749-3.833.5-1.138 1.185-2.108 2.056-2.909.871-.802 1.899-1.417 3.084-1.847 1.185-.43 2.451-.645 3.798-.645.627 0 1.248.058 1.864.174.616.117 1.208.273 1.777.471.569.197 1.092.441 1.568.732.476.29.889.609 1.237.958l-3.31 3.833zM170.468 6.244c0 .442-.087.854-.261 1.237-.175.384-.407.715-.697.993-.291.279-.639.5-1.046.663-.406.162-.83.243-1.271.243-.93 0-1.708-.307-2.335-.923-.627-.616-.941-1.353-.941-2.213 0-.418.082-.818.244-1.202.163-.383.395-.714.697-.993.302-.279.65-.505 1.045-.679.395-.174.825-.262 1.29-.262.441 0 .865.082 1.271.244.407.163.755.384 1.046.662.29.279.522.61.697.993.174.384.261.796.261 1.237zm-6.133 22.893l0-17.352 5.715 0 0 17.352-5.715 0zM184.441 21.576l-.732 0c-.627 0-1.26.029-1.899.087-.639.058-1.208.169-1.707.331-.5.163-.912.401-1.237.714-.326.314-.488.726-.488 1.237 0 .326.075.604.226.837.151.232.343.418.575.557.232.14.5.238.802.296.302.058.592.088.871.088 1.161 0 2.05-.32 2.665-.959.616-.639.924-1.504.924-2.596l0-.592zm-10.489-7.422c1.023-.976 2.213-1.707 3.572-2.195 1.359-.488 2.747-.732 4.164-.732 1.463 0 2.7.18 3.711.54 1.01.36 1.829.918 2.456 1.673.628.755 1.086 1.707 1.377 2.857.29 1.15.435 2.515.435 4.094l0 8.746-5.226 0 0-1.846-.105 0c-.441.72-1.109 1.277-2.003 1.672-.895.395-1.865.592-2.91.592-.697 0-1.417-.092-2.16-.278-.744-.186-1.423-.488-2.039-.906-.615-.418-1.121-.976-1.515-1.673-.395-.697-.593-1.556-.593-2.578 0-1.255.343-2.265 1.028-3.032.685-.766 1.568-1.359 2.648-1.777 1.081-.418 2.283-.697 3.607-.836 1.324-.14 2.613-.209 3.867-.209l0-.279c0-.859-.301-1.492-.905-1.899-.604-.407-1.348-.61-2.231-.61-.813 0-1.597.174-2.352.523-.754.348-1.399.766-1.933 1.254l-2.893-3.101zM193.605 2.795H199.38899999999998V29.137999999999998H193.605z" fill="#ffa811"/></g><path d="M143.882,20.391c0,1.417 -0.256,2.701 -0.767,3.851c-0.511,1.15 -1.208,2.125 -2.091,2.927c-0.882,0.801 -1.904,1.422 -3.066,1.864c-1.161,0.441 -2.404,0.662 -3.728,0.662c-1.301,0 -2.538,-0.221 -3.711,-0.662c-1.173,-0.442 -2.195,-1.063 -3.067,-1.864c-0.871,-0.802 -1.562,-1.777 -2.073,-2.927c-0.511,-1.15 -0.766,-2.434 -0.766,-3.851c0,-1.417 0.255,-2.694 0.766,-3.833c0.511,-1.138 1.202,-2.102 2.073,-2.892c0.872,-0.79 1.894,-1.393 3.067,-1.812c1.173,-0.418 2.41,-0.627 3.711,-0.627c1.324,0 2.567,0.209 3.728,0.627c1.162,0.419 2.184,1.022 3.066,1.812c0.883,0.79 1.58,1.754 2.091,2.892c0.511,1.139 0.767,2.416 0.767,3.833Zm-8.56,0.021c0.54,-0.36 0.895,-0.974 0.895,-1.671c0,-1.108 -0.899,-2.007 -2.007,-2.007c-1.108,0 -2.008,0.899 -2.008,2.007c0,0.758 0.421,1.419 1.042,1.76l-1.236,4.667l4.573,0l-1.259,-4.756Z" fill="#ffa811" fill-rule="nonzero"/></svg>